<?xml version="1.0" standalone="no"?>
<!DOCTYPE svg PUBLIC "-//W3C//DTD SVG 20010904//EN"
 "http://www.w3.org/TR/2001/REC-SVG-20010904/DTD/svg10.dtd">
<svg version="1.0" xmlns="http://www.w3.org/2000/svg"
 width="300.000000pt" height="300.000000pt" viewBox="0 0 300.000000 300.000000"
 preserveAspectRatio="xMidYMid meet">
<metadata>
Created by potrace 1.10, written by Peter Selinger 2001-2011
</metadata>
<g transform="translate(0.000000,300.000000) scale(0.100000,-0.100000)"
fill="#000000" stroke="none">
<path d="M492 2869 c-2 -148 -2 -149 54 -149 22 0 24 4 24 50 0 28 -4 50 -9
50 -5 0 -9 -14 -9 -31 1 -29 -23 -60 -30 -39 -2 6 -7 8 -12 5 -5 -3 -7 10 -6
28 2 18 0 76 -4 128 l-7 94 -1 -136z"/>
<path d="M593 2978 c-27 -29 -67 -123 -60 -140 3 -7 6 -2 6 12 l1 25 26 -30
25 -30 -17 32 c-16 28 -16 35 -3 70 8 21 29 47 48 60 27 18 30 23 14 23 -11 0
-29 -10 -40 -22z"/>
<path d="M758 2978 c-10 -10 -18 -26 -18 -36 0 -10 -5 -23 -12 -30 -7 -7 -9
-12 -5 -12 9 0 59 80 55 89 -2 4 -11 -1 -20 -11z"/>
<path d="M828 2953 c-23 -68 -31 -113 -20 -113 5 0 13 25 17 54 3 31 15 66 26
80 15 19 17 26 7 26 -8 0 -21 -21 -30 -47z"/>
<path d="M1503 2955 c-55 -41 -64 -45 -82 -33 -12 7 -21 16 -21 19 0 13 -41
17 -75 8 -34 -10 -66 -49 -65 -81 1 -7 7 1 14 17 7 17 25 36 40 43 33 15 76
16 76 2 0 -5 7 -10 15 -10 8 0 20 -11 28 -26 l13 -25 14 26 c8 14 40 42 72 61
32 20 58 37 58 40 0 14 -34 -2 -87 -41z"/>
<path d="M1621 2987 c-1 -10 24 -45 55 -77 48 -50 59 -58 75 -49 14 7 29 5 55
-7 45 -21 68 -56 60 -89 -6 -23 -5 -24 18 -13 26 11 82 -4 98 -26 13 -18 9
-71 -7 -92 -21 -28 -19 -31 33 -38 39 -5 51 -12 70 -41 27 -43 28 -74 2 -127
-11 -23 -18 -43 -16 -45 2 -2 17 -5 34 -6 24 -1 37 -11 56 -42 31 -47 32 -64
6 -98 -24 -30 -25 -37 -5 -37 8 0 15 4 15 9 0 5 8 11 18 13 26 5 55 -57 49
-104 -3 -21 -1 -36 4 -32 5 3 9 -5 9 -17 0 -18 3 -20 12 -11 9 9 9 15 0 24 -9
9 -5 20 20 47 18 19 26 30 16 23 -13 -10 -17 -10 -21 0 -4 10 -8 10 -17 -2 -9
-12 -11 -10 -7 12 2 15 1 25 -3 23 -4 -2 -12 7 -18 20 -10 21 -9 23 6 18 12
-5 10 1 -7 20 -27 30 -56 100 -38 94 5 -1 11 -11 13 -21 1 -10 8 -24 14 -30 9
-8 10 -3 5 24 -9 46 -27 73 -70 106 -38 28 -39 32 -26 53 7 11 13 9 32 -10 13
-13 24 -27 24 -31 0 -20 11 -13 13 9 1 15 -1 24 -4 20 -3 -3 -19 8 -35 24 -30
31 -38 46 -17 33 8 -5 9 -2 4 12 -4 10 -10 30 -13 44 -2 14 -13 36 -23 49 -16
22 -31 28 -80 30 -10 1 -17 12 -18 34 -2 17 -14 49 -27 69 -25 38 -66 60 -73
39 -7 -21 -22 0 -22 32 0 25 -9 39 -40 65 -52 43 -55 40 -8 -10 50 -55 51 -85
1 -36 -21 19 -51 39 -68 43 l-30 7 22 17 c15 12 18 22 12 32 -8 13 -13 6 -10
-13 0 -5 -3 -8 -9 -8 -5 0 -10 6 -10 14 0 15 -76 69 -91 64 -6 -2 10 -18 35
-35 29 -21 46 -40 46 -53 0 -11 -3 -20 -6 -20 -11 0 -99 82 -106 98 -6 15 -7
15 -7 -1z m454 -378 c19 -17 35 -38 34 -48 0 -12 -2 -12 -10 4 -10 20 -33 36
-71 51 -10 3 -18 10 -18 15 0 18 31 8 65 -22z m105 -224 c0 -2 3 -11 6 -19 4
-12 -6 -9 -35 11 -24 15 -41 34 -41 45 0 17 4 16 35 -8 19 -14 35 -28 35 -29z"/>
<path d="M2317 2952 c25 -51 30 -111 19 -212 -9 -73 -14 -290 -7 -290 4 0 6
-60 6 -132 0 -116 2 -133 17 -136 12 -2 15 2 11 17 -3 12 -10 21 -15 21 -10 0
-7 50 6 130 4 25 3 31 -4 20 -6 -9 -10 -10 -10 -3 0 6 3 14 8 16 4 3 5 49 2
104 -3 54 -2 152 2 218 8 152 0 262 -19 269 -8 3 -11 10 -8 16 3 5 -2 10 -13
10 -18 0 -18 -2 5 -48z"/>
<path d="M2606 2965 c25 -26 34 -46 36 -78 3 -47 21 -58 25 -14 1 15 -2 25 -8
22 -5 -4 -9 10 -9 29 0 40 -28 76 -59 76 -15 0 -13 -6 15 -35z"/>
<path d="M2435 2968 c13 -38 36 -68 65 -83 15 -8 39 -28 54 -45 22 -27 26 -39
23 -86 -2 -31 -10 -61 -19 -71 -28 -31 -40 -75 -33 -125 10 -67 28 -61 22 7
-4 49 -1 59 24 92 24 32 28 48 29 99 0 75 -26 119 -87 148 -34 17 -43 26 -45
51 -2 20 -9 31 -21 33 -16 3 -18 0 -12 -20z"/>
<path d="M1555 2918 l-40 -41 35 21 c19 11 41 30 49 42 23 35 -3 22 -44 -22z"/>
<path d="M1156 2909 c-15 -18 -23 -36 -19 -42 5 -8 9 -4 11 10 4 26 32 54 32
31 0 -8 -5 -19 -12 -26 -9 -9 -8 -12 5 -12 13 0 17 9 17 35 0 19 -2 35 -4 35
-2 0 -16 -14 -30 -31z"/>
<path d="M2020 2919 c0 -6 11 -24 23 -39 l24 -28 24 20 24 19 -23 -11 c-20
-10 -26 -9 -38 7 -18 25 -17 33 4 27 14 -5 15 -4 2 5 -20 14 -40 14 -40 0z"/>
<path d="M1954 2871 c1 -24 9 -48 17 -55 8 -6 24 -27 37 -46 24 -39 28 -33 10
17 -7 18 -20 35 -30 39 -20 6 -24 24 -5 24 7 0 8 3 2 8 -6 4 -16 18 -22 32
-10 23 -11 21 -9 -19z"/>
<path d="M669 2884 c-31 -20 -59 -82 -59 -132 0 -28 10 -52 35 -88 30 -43 35
-57 35 -109 1 -50 3 -57 12 -40 24 42 3 142 -37 175 -17 14 -19 90 -2 90 5 0
4 7 -3 15 -16 19 -5 49 31 80 34 28 28 33 -12 9z"/>
<path d="M1345 2870 c-3 -5 -16 -15 -27 -21 -18 -10 -20 -9 -15 5 4 9 4 16 1
16 -7 0 -28 -53 -25 -66 1 -6 -13 -17 -30 -24 -17 -8 -45 -25 -61 -38 -24 -21
-29 -31 -27 -63 3 -31 -2 -42 -25 -60 -16 -12 -34 -36 -42 -53 -7 -17 -13 -25
-14 -18 0 7 -4 10 -10 7 -11 -7 -2 23 13 43 5 7 7 15 3 19 -3 3 -6 2 -6 -4 0
-21 -81 -8 -100 15 -19 23 -40 29 -40 11 0 -6 -7 -9 -15 -5 -17 6 -19 -2 -6
-23 6 -9 18 -11 40 -6 36 8 40 -4 11 -30 -18 -16 -19 -20 -6 -27 8 -5 13 -14
10 -21 -2 -7 9 -20 26 -30 22 -14 30 -15 31 -5 0 7 4 4 9 -7 8 -20 9 -19 9 1
1 12 7 26 14 32 9 8 13 -2 14 -43 3 -50 1 -54 -25 -63 -69 -25 -69 -25 -41 0
l26 24 -35 1 c-37 1 -86 -23 -77 -37 3 -5 1 -11 -5 -15 -5 -3 -10 -11 -10 -16
0 -6 7 -4 15 5 8 8 15 19 15 25 0 14 38 33 51 26 7 -5 6 -12 -2 -21 -9 -11
-14 -12 -19 -3 -6 8 -9 8 -14 0 -4 -6 -2 -11 4 -11 7 0 9 -9 5 -22 -4 -13 -9
-31 -11 -40 -3 -10 0 -18 6 -18 6 0 9 4 6 8 -7 12 21 49 47 63 19 11 18 8 -6
-20 -15 -18 -27 -36 -28 -39 0 -4 -2 -24 -3 -45 -1 -25 -9 -44 -22 -55 -12 -9
-25 -26 -29 -37 -8 -19 -9 -19 -13 4 -2 16 4 31 22 47 16 16 23 30 19 41 -5
12 -3 14 7 8 9 -5 11 -4 6 3 -11 19 -26 14 -26 -8 0 -22 -16 -27 -23 -7 -2 6
-2 2 0 -10 2 -13 -1 -23 -7 -23 -6 0 -8 -4 -5 -10 3 -5 1 -10 -5 -10 -8 0 -10
-14 -7 -39 5 -46 11 -57 35 -63 15 -4 18 -1 14 18 -2 13 -1 35 2 49 5 20 13
25 36 25 29 0 29 0 24 48 -6 54 19 105 61 124 14 6 25 15 25 19 0 4 9 5 20 2
24 -6 25 4 5 31 -8 11 -15 39 -15 63 0 33 7 50 31 78 17 19 40 35 51 35 14 0
18 5 14 18 -19 65 -18 71 12 102 21 21 40 30 62 30 25 0 31 4 26 15 -7 20 56
85 83 85 11 0 23 5 26 10 4 6 -6 10 -24 10 -16 0 -33 -4 -36 -10z m-295 -314
c0 -13 -8 -30 -19 -40 -16 -15 -20 -15 -31 -2 -10 13 -9 18 3 31 12 11 17 12
20 2 4 -9 6 -9 6 0 1 19 -18 26 -35 12 -8 -6 -17 -9 -21 -6 -7 8 59 37 69 31
5 -3 8 -15 8 -28z"/>
<path d="M1541 2848 c6 -11 8 -34 5 -52 -6 -30 -5 -31 26 -31 30 0 36 -5 60
-54 15 -29 24 -59 21 -65 -5 -7 -9 -5 -11 7 -8 40 -76 5 -70 -37 4 -25 42 -34
65 -14 29 24 4 -34 -27 -64 -35 -34 -66 -39 -50 -8 6 11 7 21 3 21 -40 7 -53
5 -44 -4 19 -19 12 -29 -16 -22 l-26 6 24 -25 c25 -26 53 -33 64 -16 3 6 13
10 20 10 20 0 32 -50 15 -60 -9 -6 -7 -11 10 -20 18 -10 24 -9 31 1 5 8 4 15
-1 17 -5 2 -7 9 -4 17 3 7 1 16 -4 19 -9 5 18 111 35 139 3 6 7 38 8 71 2 50
-3 69 -23 101 -27 43 -40 54 -90 72 -31 12 -32 11 -21 -9z m39 -48 c5 0 7 9 5
20 -7 34 9 22 29 -23 11 -23 22 -46 24 -52 3 -5 -9 3 -27 18 -18 15 -37 25
-42 21 -5 -3 -8 12 -8 33 2 30 3 32 6 11 2 -16 8 -28 13 -28z"/>
<path d="M2206 2861 c-5 -7 -5 -15 -2 -18 3 -4 6 0 6 7 0 9 5 7 14 -5 8 -11
12 -25 9 -32 -3 -7 0 -13 6 -13 17 0 13 25 -7 51 -14 16 -21 19 -26 10z"/>
<path d="M1465 2849 c6 -9 3 -11 -9 -6 -22 9 -63 -18 -81 -53 -22 -42 -30
-121 -13 -131 11 -8 11 -10 -1 -18 -11 -7 -11 -9 0 -13 8 -3 13 -23 13 -59 1
-30 5 -57 10 -60 12 -9 0 -39 -16 -39 -9 0 -8 3 2 10 13 8 13 10 -1 10 -13 0
-16 10 -16 43 0 72 -13 126 -30 120 -12 -5 -12 -7 -1 -14 9 -6 3 -9 -18 -9
l-31 0 8 -46 c10 -51 65 -133 89 -134 25 0 43 17 37 35 -4 9 -3 14 3 10 13 -8
13 8 -1 22 -6 6 -12 40 -12 76 -2 65 -1 67 41 110 27 28 40 47 33 51 -11 7
-12 6 -15 -16 0 -6 -7 -13 -15 -16 -10 -3 -11 0 -5 9 5 9 0 8 -18 -3 -15 -10
-29 -14 -32 -9 -9 14 26 37 82 56 39 13 52 21 52 36 0 16 -5 19 -22 14 -17 -4
-19 -4 -9 3 11 8 9 12 -9 22 -18 10 -21 9 -15 -1z m-54 -150 c-24 -20 -45 -22
-39 -4 2 6 8 10 15 10 6 0 15 4 19 8 4 4 12 7 18 7 6 -1 0 -10 -13 -21z"/>
<path d="M2130 2850 l-35 -7 32 -2 c17 0 39 -4 47 -7 12 -5 15 -2 10 10 -3 9
-9 15 -13 15 -3 -1 -22 -5 -41 -9z"/>
<path d="M2073 2823 c-18 -6 -16 -18 4 -38 14 -14 14 -20 4 -37 -10 -16 -10
-19 0 -12 9 5 10 2 6 -9 -9 -24 6 -21 21 3 13 21 38 28 26 8 -5 -9 -4 -10 4
-3 17 17 18 49 1 66 -18 18 -48 28 -66 22z"/>
<path d="M226 2804 c-9 -23 -7 -64 3 -64 5 0 8 18 7 40 -1 45 -1 46 -10 24z"/>
<path d="M2680 2795 c0 -22 4 -25 40 -25 22 0 40 5 40 10 0 6 -9 10 -19 10
-28 0 -52 11 -45 21 3 5 0 9 -5 9 -6 0 -11 -11 -11 -25z"/>
<path d="M2183 2783 c9 -2 17 -8 18 -11 0 -4 2 -15 4 -25 3 -15 -1 -18 -21
-13 -17 5 -24 2 -24 -9 0 -23 28 -18 55 11 27 29 30 40 15 49 -6 4 -7 -1 -3
-12 6 -17 5 -17 -14 0 -11 9 -26 16 -34 16 -9 -1 -7 -3 4 -6z"/>
<path d="M834 2535 c0 -137 2 -195 3 -128 2 67 2 179 0 250 -1 70 -3 16 -3
-122z"/>
<path d="M395 2752 c-61 -7 -49 -22 19 -22 50 0 67 3 64 13 -5 12 -30 15 -83
9z"/>
<path d="M2377 2743 c-4 -3 -7 -90 -7 -191 0 -102 2 -183 5 -180 4 3 13 378 9
378 0 0 -4 -3 -7 -7z"/>
<path d="M2653 2734 c-3 -8 -3 -37 0 -63 4 -30 1 -53 -6 -60 -13 -13 28 -14
78 -1 29 7 29 8 5 10 -14 2 -31 3 -37 3 -18 -1 -17 81 1 96 9 8 15 8 18 2 2
-7 9 -7 18 -1 19 12 13 16 -33 23 -29 4 -39 2 -44 -9z"/>
<path d="M528 2703 c-20 -5 -24 -28 -8 -38 6 -3 10 1 10 9 0 9 4 16 8 16 15 0
44 -38 37 -49 -3 -6 -1 -11 4 -11 22 0 10 -15 -21 -29 -24 -11 -33 -11 -36 -3
-2 7 -8 10 -13 6 -19 -11 3 -24 42 -24 21 0 39 -5 39 -10 0 -13 51 -59 64 -60
6 0 -4 15 -21 33 -28 28 -31 37 -26 74 9 65 -2 93 -35 92 -15 -1 -35 -3 -44
-6z"/>
<path d="M799 2673 c0 -21 -2 -56 -3 -78 -1 -22 1 -105 4 -185 7 -143 7 -143
8 78 1 122 0 222 -3 222 -3 0 -5 -17 -6 -37z"/>
<path d="M2240 2679 c5 -15 4 -31 -1 -36 -5 -5 -7 -17 -3 -26 11 -30 20 -18
17 24 -2 32 1 40 12 35 9 -3 15 0 15 8 0 8 -11 16 -24 18 -22 4 -23 2 -16 -23z"/>
<path d="M2168 2673 c-7 -25 -43 -32 -51 -10 -4 9 -6 9 -6 0 -1 -7 11 -20 25
-30 25 -16 27 -16 36 1 6 10 16 15 28 11 10 -3 21 -1 25 5 4 6 -4 10 -19 10
-15 0 -26 7 -28 18 -3 14 -5 13 -10 -5z"/>
<path d="M1475 2673 c35 -9 38 -21 3 -19 -23 1 -34 -4 -36 -16 -5 -24 32 -40
73 -32 28 5 34 10 32 28 -2 25 -33 46 -67 44 -20 0 -21 -1 -5 -5z"/>
<path d="M2172 2588 c3 -7 20 -17 39 -22 33 -10 33 -10 8 -14 -22 -2 -26 -7
-21 -24 4 -18 2 -19 -19 -13 -24 8 -24 8 -5 -14 19 -21 37 -28 35 -13 -1 4 -1
17 0 30 1 26 21 30 22 5 0 -14 2 -15 6 -3 3 8 12 20 20 27 12 9 9 14 -19 26
-55 25 -70 28 -66 15z"/>
<path d="M900 2583 c0 -5 9 -19 20 -33 25 -32 25 -36 0 -43 -17 -4 -20 -10
-14 -34 10 -41 13 -44 37 -32 l21 12 -23 18 c-15 12 -18 19 -9 19 8 0 19 -5
26 -12 22 -22 14 11 -15 63 -25 44 -43 62 -43 42z"/>
<path d="M2599 2556 c-20 -34 -17 -50 5 -21 7 10 31 24 52 30 l39 11 -39 5
c-35 5 -40 2 -57 -25z"/>
<path d="M2720 2572 c0 -5 28 -7 63 -4 89 5 94 10 10 11 -40 1 -73 -3 -73 -7z"/>
<path d="M300 2567 c0 -17 43 -28 71 -18 16 5 29 6 29 2 0 -4 17 -8 38 -8 20
-1 51 -4 69 -8 32 -6 55 8 29 18 -22 9 -236 21 -236 14z"/>
<path d="M868 2519 c-3 -18 -2 -46 3 -63 l7 -31 1 31 c1 17 4 46 7 63 4 18 2
31 -4 31 -5 0 -12 -14 -14 -31z"/>
<path d="M2736 2532 c-9 -26 -74 -56 -92 -42 -7 7 -23 10 -36 8 l-23 -4 25
-13 c23 -11 25 -18 27 -84 7 -334 16 -457 34 -457 6 0 7 5 3 11 -4 7 -8 89
-10 183 -2 94 -6 202 -9 239 -4 48 -2 73 6 83 15 19 74 44 103 44 11 1 32 7
46 16 25 15 24 15 -16 12 -30 -2 -40 0 -37 9 3 7 0 13 -5 13 -6 0 -13 -8 -16
-18z"/>
<path d="M2262 2527 c-7 -7 -13 -28 -14 -46 -2 -25 3 -37 20 -48 21 -15 22
-14 22 8 0 19 -2 21 -10 9 -9 -13 -11 -13 -19 0 -5 8 -7 19 -3 25 4 5 5 18 4
28 -2 10 3 17 12 17 9 0 16 -7 16 -17 0 -9 3 -14 6 -10 8 7 -5 47 -15 47 -5 0
-13 -6 -19 -13z"/>
<path d="M350 2500 c0 -9 14 -11 59 -6 55 6 59 5 75 -19 16 -25 16 -25 -16
-26 -18 0 -27 -3 -20 -6 6 -2 10 -9 6 -14 -3 -5 2 -9 10 -9 9 0 16 4 16 8 0 5
11 15 25 22 22 12 27 11 44 -4 11 -10 18 -23 15 -30 -2 -6 2 -20 10 -31 14
-19 15 -17 14 20 0 35 -5 44 -41 69 -33 23 -54 29 -119 33 -59 5 -78 3 -78 -7z"/>
<path d="M1440 2453 c12 -20 19 -45 17 -55 -3 -12 1 -19 11 -20 10 -1 24 -2
32 -4 8 -1 31 -3 50 -4 32 -2 33 -3 10 -10 -14 -4 -36 -6 -50 -5 -14 1 -18 0
-10 -2 8 -3 19 -10 23 -17 5 -7 10 -7 13 -1 4 10 70 12 80 2 11 -11 -67 -19
-114 -12 -26 5 -58 9 -71 11 -25 3 -55 24 -34 24 6 0 19 3 29 7 12 4 15 3 10
-5 -4 -7 -3 -12 3 -12 5 0 12 4 16 9 7 12 -31 24 -47 16 -7 -4 -5 0 5 8 19 15
23 52 7 62 -5 3 -10 0 -10 -7 0 -13 -28 -54 -62 -89 -15 -16 -14 -18 24 -27
22 -6 46 -8 53 -6 22 9 90 -15 113 -39 20 -21 21 -26 8 -36 -10 -8 -16 -9 -21
-1 -11 17 -59 11 -108 -14 -35 -17 -47 -20 -47 -10 0 8 -4 14 -10 14 -13 0
-13 -18 1 -33 9 -10 23 -7 65 14 50 26 112 30 98 7 -4 -6 3 -5 16 2 34 18 46
7 76 -72 15 -40 34 -81 43 -91 13 -16 10 -22 -35 -69 -27 -29 -40 -45 -29 -38
105 76 146 179 115 290 -8 32 -8 33 5 16 8 -11 18 -42 22 -70 6 -48 7 -49 14
-21 5 18 4 32 -2 36 -6 3 -10 8 -8 10 1 2 -1 15 -6 29 -9 27 -12 40 -14 54 0
5 -9 2 -18 -5 -9 -8 -14 -9 -10 -3 4 7 0 17 -8 24 -11 9 -9 -2 5 -44 21 -57
27 -152 11 -141 -5 3 -12 1 -15 -4 -16 -26 -66 22 -66 64 0 7 -23 39 -51 69
-54 59 -55 61 -15 47 18 -7 28 -6 36 4 14 17 48 14 59 -4 6 -9 10 -6 14 9 4
16 11 21 22 16 9 -3 14 -2 11 3 -8 12 -46 21 -46 10 0 -5 -17 2 -37 15 -21 13
-57 26 -81 29 -47 5 -68 19 -58 36 5 7 15 6 32 -5 13 -9 24 -12 24 -8 0 5 4 3
9 -5 11 -17 31 -6 31 17 0 10 8 29 17 42 l16 25 -24 -21 c-39 -35 -64 -35
-109 -3 -22 16 -43 29 -46 29 -3 0 4 -17 16 -37z"/>
<path d="M2753 2463 c8 -12 -49 -26 -66 -16 -5 3 -7 1 -4 -4 4 -6 0 -14 -9
-17 -9 -4 -14 -9 -11 -12 3 -3 15 0 27 6 12 6 54 18 93 25 54 10 63 13 35 14
-20 1 -44 4 -54 8 -11 4 -15 3 -11 -4z"/>
<path d="M449 2391 c62 -13 89 -24 103 -40 21 -26 24 -55 6 -48 -7 2 -13 9
-13 15 0 5 -4 14 -9 19 -5 5 -6 2 -1 -6 5 -10 3 -12 -11 -7 -36 11 -127 26
-153 25 -14 -1 5 -7 42 -15 80 -16 157 -48 158 -66 0 -7 1 -35 0 -63 0 -46 1
-48 10 -20 5 17 7 62 3 100 -7 85 -25 102 -117 116 -100 14 -109 9 -18 -10z"/>
<path d="M2728 2394 c-26 -8 -50 -19 -53 -25 -4 -5 10 -3 30 5 47 20 48 20 42
-4 -3 -13 0 -20 8 -20 8 0 15 10 17 23 2 12 10 22 18 22 10 0 14 -8 12 -22 -2
-16 2 -23 13 -23 11 0 15 7 13 22 -2 15 3 24 14 26 12 2 18 -5 20 -25 3 -28 3
-28 9 5 l6 32 -51 -1 c-28 0 -72 -7 -98 -15z"/>
<path d="M871 2338 c1 -37 5 -65 9 -63 8 5 2 116 -6 124 -3 3 -4 -25 -3 -61z"/>
<path d="M2239 2386 c25 -9 40 -23 52 -52 10 -21 18 -33 18 -26 3 41 -51 94
-92 91 -7 0 3 -6 22 -13z"/>
<path d="M1770 2345 c0 -4 9 -18 20 -32 11 -14 20 -33 20 -42 0 -9 12 -34 26
-55 31 -45 40 -98 26 -150 -10 -36 -9 -40 20 -65 34 -28 105 -71 119 -71 4 0
17 19 28 43 19 39 20 40 15 10 -3 -25 1 -35 24 -52 l27 -21 -28 10 c-42 15
-46 12 -12 -8 32 -20 217 -48 236 -36 6 3 15 0 20 -7 4 -8 16 -15 26 -15 10
-1 27 -5 38 -10 20 -7 20 -7 1 14 -15 17 -17 30 -11 68 l7 46 -26 -18 c-14
-11 -26 -25 -26 -32 0 -8 -9 -11 -22 -8 -13 3 -45 8 -71 11 -69 9 -132 39
-158 74 -13 17 -28 31 -35 31 -7 0 -15 6 -17 13 -3 6 -6 2 -6 -11 -1 -15 3
-21 11 -16 8 5 9 2 5 -10 -4 -10 -7 -20 -7 -22 0 -2 -17 -4 -37 -4 -25 0 -33
3 -24 9 10 6 10 13 2 29 -8 15 -7 23 4 32 8 7 15 16 15 21 0 5 -9 0 -21 -12
-13 -13 -18 -27 -14 -40 6 -18 5 -19 -14 -7 -27 16 -26 25 2 50 12 11 17 17
11 14 -7 -3 -15 4 -19 17 -8 21 -8 21 -12 -5 -2 -16 -8 -28 -12 -28 -4 0 -6
14 -3 30 3 18 0 30 -7 30 -7 0 -11 21 -11 53 0 44 -4 58 -25 77 -17 16 -25 34
-25 57 0 22 -5 33 -14 33 -8 0 -21 3 -30 6 -9 3 -16 3 -16 -1z"/>
<path d="M1720 2321 c0 -6 3 -11 8 -11 4 0 20 -11 36 -25 36 -31 41 -31 22 -2
-8 12 -15 27 -15 32 0 14 -51 19 -51 6z"/>
<path d="M2745 2321 c-11 -4 18 -6 65 -4 110 6 125 11 30 12 -41 0 -84 -4 -95
-8z"/>
<path d="M1275 2310 c-35 -4 -45 -12 -77 -60 -30 -45 -40 -74 -52 -145 -8 -50
-26 -124 -41 -165 -14 -41 -28 -82 -31 -91 -5 -13 1 -15 28 -10 19 3 26 6 15
9 -16 3 -15 6 5 24 17 15 19 18 6 14 -22 -7 -24 10 -2 22 9 5 15 11 14 13 -1
2 1 16 5 32 10 39 42 35 36 -5 0 -4 6 -5 14 -2 8 4 15 10 15 16 0 5 -4 7 -8 4
-5 -3 -15 6 -22 19 -11 20 -11 27 0 40 8 10 9 15 1 15 -7 0 -8 8 0 27 8 22 13
56 19 124 0 3 16 23 35 43 34 36 34 37 12 46 -18 7 -15 9 21 9 24 1 60 -8 82
-19 22 -11 52 -19 67 -19 20 1 23 3 9 6 -11 3 -36 15 -55 27 -52 32 -52 32
-96 26z"/>
<path d="M410 2286 c0 -13 5 -28 10 -31 6 -3 10 3 10 14 0 12 0 24 1 28 0 4
-4 9 -10 11 -6 2 -11 -8 -11 -22z"/>
<path d="M487 2262 c9 -61 22 -73 23 -21 0 32 -5 49 -14 52 -12 5 -13 -2 -9
-31z"/>
<path d="M2814 2250 c1 -65 13 -65 18 0 2 32 -1 50 -8 50 -7 0 -11 -20 -10
-50z"/>
<path d="M2748 2283 c-2 -5 -1 -28 3 -53 l6 -45 1 53 c2 48 -2 63 -10 45z"/>
<path d="M1270 2223 c1 -10 7 -31 16 -48 l14 -30 -5 34 c-3 18 -5 40 -5 47 0
8 -4 14 -10 14 -5 0 -10 -8 -10 -17z"/>
<path d="M1301 2230 c0 -8 7 -31 14 -50 12 -31 14 -32 14 -10 0 14 -6 36 -14
50 -8 14 -14 18 -14 10z"/>
<path d="M833 2203 c4 -17 1 -23 -11 -23 -15 -1 -15 -2 -2 -10 14 -8 17 -26
11 -77 0 -7 -9 -13 -18 -14 -12 0 -13 -2 -5 -6 7 -3 33 -24 58 -46 41 -37 45
-45 42 -79 -2 -21 0 -38 4 -38 5 0 8 22 8 49 0 28 5 53 10 56 16 10 -5 39 -44
60 -20 11 -36 22 -36 25 0 3 4 21 9 41 7 29 4 40 -12 60 -20 24 -20 24 -14 2z
m87 -184 c0 -14 -9 -11 -46 17 -18 14 -31 30 -28 35 6 10 74 -38 74 -52z"/>
<path d="M1444 2196 c-46 -17 -91 -49 -76 -54 7 -2 19 4 27 14 19 27 30 11 12
-18 -8 -12 -17 -36 -21 -53 -4 -23 -1 -19 15 15 11 25 34 60 52 78 17 17 29
31 26 31 -2 -1 -18 -6 -35 -13z"/>
<path d="M1895 2170 c9 -46 23 -60 20 -20 -1 17 -8 37 -15 43 -10 10 -11 5 -5
-23z"/>
<path d="M440 2183 c0 -4 29 -15 65 -23 36 -9 65 -15 65 -13 0 1 -12 9 -27 16
-35 18 -103 31 -103 20z"/>
<path d="M2753 2179 c-24 -4 -51 -13 -60 -19 -16 -10 -16 -11 2 -5 11 4 42 9
68 12 26 3 50 10 53 14 6 10 -5 10 -63 -2z"/>
<path d="M1924 2154 c3 -9 6 -20 6 -26 0 -7 5 -6 14 1 10 9 16 8 26 -4 7 -8 9
-15 5 -15 -5 0 5 -11 21 -25 16 -14 36 -23 46 -19 12 4 15 0 11 -16 -6 -21 11
-28 22 -9 9 14 -28 52 -91 94 -58 39 -69 42 -60 19z"/>
<path d="M2343 2125 c2 -30 -12 -45 -55 -61 -10 -3 -18 -12 -18 -19 0 -8 -3
-22 -7 -32 -6 -14 -1 -13 24 7 18 14 32 31 32 38 2 24 30 11 34 -15 2 -17 4
-10 5 17 0 25 -4 56 -8 70 -9 24 -9 24 -7 -5z"/>
<path d="M568 2060 c2 -38 2 -70 -1 -70 -3 0 -17 6 -31 14 -15 7 -58 13 -99
13 l-72 1 81 -12 c96 -14 133 -34 129 -69 -2 -13 1 -30 5 -37 4 -6 7 41 6 106
-1 66 -6 119 -11 121 -6 2 -9 -24 -7 -67z"/>
<path d="M2736 2113 c-3 -3 -5 -29 -4 -57 1 -47 2 -48 5 -11 3 22 9 45 14 51
11 13 -3 28 -15 17z"/>
<path d="M1761 2021 c-31 -50 -55 -78 -77 -89 -18 -8 -31 -19 -29 -23 3 -4
-14 -9 -38 -12 -67 -8 -128 -24 -140 -36 -6 -6 -15 -11 -21 -11 -5 0 -6 3 -3
7 4 3 0 17 -8 30 -9 13 -13 23 -10 23 4 0 0 7 -9 15 -8 8 -19 15 -25 15 -6 0
-11 5 -11 10 0 6 5 10 10 10 6 0 10 4 10 9 0 6 -10 8 -21 6 -20 -4 -21 -1 -15
38 6 37 5 40 -7 23 -12 -16 -16 -17 -36 -5 -19 12 -24 12 -35 -3 -7 -10 -16
-15 -19 -11 -4 3 -7 0 -7 -8 0 -8 -9 -22 -20 -32 -17 -14 -18 -21 -10 -37 12
-23 4 -44 -12 -34 -6 4 -8 2 -4 -4 3 -6 2 -13 -3 -17 -6 -3 -8 -12 -4 -20 3
-8 0 -15 -7 -15 -6 0 -8 6 -5 13 4 6 -2 1 -13 -13 -11 -13 -18 -29 -15 -34 4
-6 -2 -6 -13 -2 -54 21 -72 19 -87 -10 -14 -27 -13 -29 11 -41 31 -16 52 -2
32 21 -17 22 12 33 46 17 23 -10 24 -12 10 -38 -19 -38 -46 -60 -146 -127 -47
-30 -91 -61 -99 -68 -12 -10 -14 -9 -8 6 11 28 -19 57 -52 49 -40 -9 -78 -31
-84 -47 -5 -12 0 -14 23 -9 38 7 40 -12 5 -50 -29 -31 -40 -34 -49 -12 -5 13
-15 11 -65 -15 -43 -21 -59 -34 -55 -45 4 -9 0 -15 -9 -15 -16 0 -43 -27 -35
-35 3 -3 25 6 49 19 24 13 68 29 98 35 30 6 61 16 68 22 7 6 24 8 38 5 20 -5
32 1 62 32 21 20 49 42 63 49 14 6 63 39 109 73 59 45 88 75 102 104 10 23 23
48 28 56 18 29 61 129 61 143 0 8 5 28 11 45 l11 31 49 -49 c27 -27 49 -58 49
-70 0 -11 6 -20 13 -20 19 0 39 -48 31 -74 -11 -38 -47 -110 -72 -143 -13 -18
-21 -37 -18 -42 4 -5 1 -13 -5 -17 -8 -5 -9 -3 -4 6 5 8 4 11 -3 6 -6 -3 -18
-21 -26 -38 l-16 -31 21 19 c22 19 22 19 11 -2 -6 -11 -43 -50 -82 -87 -39
-37 -67 -67 -64 -67 11 0 128 86 148 109 11 12 20 30 21 40 2 24 54 91 71 91
23 0 16 -19 -16 -49 -28 -25 -52 -80 -29 -65 6 3 8 8 5 11 -3 3 15 29 39 57
l45 51 -25 8 c-24 8 -36 37 -14 37 5 0 7 6 3 13 -4 6 2 4 13 -6 14 -12 23 -15
28 -7 3 6 1 9 -6 8 -6 -2 -14 3 -17 11 -3 8 0 11 7 7 6 -4 11 -1 11 8 0 8 6
17 13 19 8 4 6 6 -4 6 -14 1 -15 6 -3 51 16 62 21 70 39 64 7 -3 47 3 87 14
40 11 97 20 126 20 58 0 62 -7 41 -67 -9 -25 -9 -43 0 -72 7 -21 15 -39 19
-39 4 0 7 31 7 68 0 48 6 77 18 95 19 29 25 64 6 37 -8 -12 -9 -11 -6 5 2 11
9 19 15 18 8 -2 12 14 11 50 l-1 52 -23 -50 c-13 -27 -24 -55 -24 -61 -1 -17
-35 -23 -54 -9 -15 11 -14 14 9 36 32 29 66 95 62 117 -2 10 -21 -13 -47 -57z
m-851 -416 c11 -13 11 -18 0 -28 -7 -7 -10 -7 -7 -1 3 6 0 11 -7 11 -11 0 -11
-6 1 -35 8 -18 12 -39 10 -45 -2 -7 -7 3 -11 20 -7 32 -26 55 -26 32 0 -6 -9
-1 -19 12 -20 25 -18 44 5 35 7 -3 16 -1 19 4 9 14 21 12 35 -5z"/>
<path d="M1715 2060 c-4 -13 -26 -44 -49 -69 l-41 -46 38 28 c20 15 37 24 37
20 1 -4 10 9 21 31 14 25 17 42 11 48 -7 7 -12 2 -17 -12z"/>
<path d="M829 2018 c-6 -66 -5 -117 1 -161 6 -43 8 -33 9 61 0 61 -1 112 -4
112 -3 0 -5 -6 -6 -12z"/>
<path d="M425 1949 c39 -5 82 -13 98 -19 15 -5 27 -5 27 -1 0 12 -96 31 -148
30 -42 -1 -39 -3 23 -10z"/>
<path d="M2380 1941 c-5 -11 -10 -32 -10 -47 0 -31 8 -28 15 5 2 13 7 31 10
42 8 25 -1 25 -15 0z"/>
<path d="M2406 1928 c-10 -38 -7 -75 8 -87 11 -9 13 -4 14 26 1 21 3 47 4 57
4 27 -18 31 -26 4z"/>
<path d="M2535 1940 l-40 -7 40 -1 c22 -1 47 3 55 8 18 12 10 12 -55 0z"/>
<path d="M2450 1921 c-17 -32 -12 -68 10 -74 10 -3 19 -2 18 2 0 3 0 9 1 13 1
9 118 -48 144 -70 30 -27 20 7 -12 37 -28 26 -28 28 -10 39 28 18 34 15 54
-25 10 -21 20 -33 22 -26 2 6 -3 26 -12 43 -20 38 -9 44 66 37 50 -5 51 -5 32
13 -13 12 -35 18 -65 17 -24 0 -50 3 -56 7 -16 9 -15 -7 0 -22 9 -9 9 -12 1
-12 -7 0 -14 4 -17 9 -4 5 -24 1 -46 -10 -21 -10 -44 -19 -50 -19 -23 0 -70
35 -66 47 8 20 -2 15 -14 -6z"/>
<path d="M288 1922 c-10 -4 24 -7 75 -7 51 0 116 -7 145 -14 58 -15 81 -8 36
10 -34 14 -231 22 -256 11z"/>
<path d="M2765 1920 c3 -5 27 -10 53 -9 35 0 42 3 27 9 -28 12 -88 12 -80 0z"/>
<path d="M348 1883 c17 -2 47 -2 65 0 17 2 3 4 -33 4 -36 0 -50 -2 -32 -4z"/>
<path d="M571 1739 c1 -89 4 -130 8 -107 8 40 5 237 -4 246 -3 3 -4 -60 -4
-139z"/>
<path d="M440 1850 c8 -5 27 -10 42 -10 15 0 38 -4 53 -10 16 -6 24 -6 20 0
-7 12 -71 30 -105 30 -20 0 -22 -2 -10 -10z"/>
<path d="M2296 1811 c-5 -7 -4 -27 5 -126 2 -23 17 65 18 108 1 26 -12 36 -23
18z"/>
<path d="M2665 1615 c4 -104 9 -192 11 -194 10 -10 3 355 -7 369 -7 11 -8 -41
-4 -175z"/>
<path d="M964 1694 c-30 -36 -39 -51 -24 -41 28 19 84 86 77 93 -2 2 -26 -21
-53 -52z"/>
<path d="M1561 1707 c0 -12 3 -17 5 -11 3 8 20 8 61 -2 31 -7 85 -11 121 -9
59 4 63 3 50 -12 -11 -15 -11 -16 5 -10 9 3 17 2 17 -4 0 -6 4 -8 9 -5 5 4 8
14 6 24 -2 9 -4 25 -4 35 -1 16 -3 17 -32 1 -39 -20 -122 -20 -189 0 -49 15
-50 15 -49 -7z"/>
<path d="M1472 1615 c-6 -14 -8 -25 -3 -25 5 0 12 7 15 16 3 9 13 14 21 10 8
-3 17 -1 20 3 4 8 -16 21 -34 21 -4 0 -13 -11 -19 -25z"/>
<path d="M1803 1625 c-12 -9 -46 -17 -75 -20 -35 -3 -57 -10 -66 -22 -7 -10
-29 -36 -50 -59 -20 -22 -45 -49 -54 -60 -35 -39 -69 -69 -77 -69 -4 0 -20
-15 -35 -33 -16 -17 -32 -30 -37 -26 -5 3 -9 0 -9 -5 0 -6 -5 -11 -11 -11 -6
0 -34 -20 -61 -45 -58 -52 -134 -105 -150 -105 -6 0 25 35 69 79 45 43 74 78
66 77 -8 0 -39 -23 -67 -51 -62 -60 -181 -155 -193 -155 -5 0 -18 -7 -29 -16
-10 -8 -13 -13 -6 -9 7 3 12 0 12 -8 0 -12 4 -13 24 -4 13 7 22 16 19 21 -4 5
-1 6 6 2 6 -4 14 0 17 9 4 9 13 14 20 11 7 -3 16 -1 19 4 3 6 16 15 28 21 22
12 22 12 3 -9 -23 -26 -151 -98 -192 -108 l-29 -7 25 21 c14 12 21 21 17 22
-5 0 -24 -16 -43 -35 -18 -19 -43 -35 -54 -35 -11 0 -20 -5 -20 -11 0 -5 -4
-8 -9 -5 -5 3 -14 0 -20 -8 -16 -20 -118 -49 -139 -40 -9 4 -20 7 -24 6 -4 -1
-47 -4 -95 -7 l-88 -5 35 20 35 19 -33 1 c-18 0 -31 -4 -27 -9 3 -6 -7 -9 -22
-8 -20 1 -27 -2 -26 -13 2 -10 -5 -16 -18 -17 -14 -1 -19 3 -15 15 3 9 1 24
-5 32 -8 12 -9 9 -4 -9 5 -15 3 -21 -3 -17 -6 4 -8 -2 -5 -14 5 -18 15 -20 97
-22 50 -2 130 -2 177 -2 l86 1 206 103 c131 65 209 109 212 121 3 10 50 51
103 90 53 40 139 105 191 143 92 70 137 116 180 189 17 27 30 37 49 38 15 1
41 3 59 5 19 2 33 -1 36 -10 6 -15 -16 -93 -44 -152 -10 -23 -19 -50 -19 -60
0 -10 -11 -62 -24 -114 -23 -90 -25 -117 -7 -105 7 4 16 36 21 70 1 3 8 26 16
52 8 27 26 97 39 157 23 98 49 165 61 153 2 -2 9 -42 14 -88 6 -46 24 -136 40
-199 32 -127 51 -216 75 -360 9 -52 33 -162 54 -245 22 -82 50 -202 64 -265
14 -63 30 -128 37 -145 l11 -29 42 49 c23 27 66 73 94 102 58 58 50 74 -8 18
-20 -19 -40 -31 -43 -27 -4 3 -4 0 -1 -9 3 -9 -10 -29 -36 -54 -23 -22 -39
-34 -35 -27 5 7 1 12 -10 12 -13 0 -14 3 -4 15 10 12 9 16 -3 21 -9 3 -13 13
-9 26 3 14 1 19 -6 14 -7 -4 -12 -2 -12 3 0 6 5 11 11 11 5 0 7 5 4 10 -4 6
-10 8 -15 5 -4 -3 -11 14 -15 37 -19 122 -55 307 -65 332 -6 16 -9 30 -7 32 4
4 15 -18 35 -66 l10 -25 0 25 c-1 31 -26 91 -44 106 -8 6 -16 35 -19 65 -3 30
-12 79 -20 110 -8 31 -15 65 -15 75 0 16 3 16 20 -6 11 -14 3 9 -19 50 -38 72
-75 185 -85 260 -3 19 -8 46 -12 60 -7 23 -6 24 12 10 18 -14 18 -14 2 6 -10
11 -18 34 -18 51 0 40 -19 93 -34 93 -6 0 -21 -7 -33 -15z"/>
<path d="M1532 1608 c-5 -7 -13 -23 -17 -36 -3 -13 -31 -55 -61 -95 -48 -64
-69 -108 -45 -93 15 9 86 107 83 113 -2 3 0 9 5 12 5 3 17 25 28 49 10 24 26
47 34 52 14 8 14 9 0 10 -9 0 -21 -6 -27 -12z"/>
<path d="M1603 1603 c-9 -24 8 -35 28 -17 10 9 19 20 19 23 0 12 -42 7 -47 -6z"/>
<path d="M2323 1565 c0 -33 2 -45 4 -27 2 18 2 45 0 60 -2 15 -4 0 -4 -33z"/>
<path d="M1886 1555 c8 -35 43 -109 50 -103 2 3 -9 34 -26 69 -16 35 -27 51
-24 34z"/>
<path d="M560 1538 c0 -4 8 -12 18 -17 13 -8 10 -9 -15 -5 -17 3 -39 1 -50 -6
-16 -10 -15 -11 9 -7 16 2 33 -2 39 -9 8 -10 16 -10 35 -2 13 6 24 15 24 20 0
5 10 3 23 -4 26 -14 46 -12 70 9 31 29 18 35 -68 31 -47 -2 -85 -6 -85 -10z"/>
<path d="M1445 1540 c-4 -6 -10 -8 -14 -5 -5 2 -17 -5 -27 -16 -10 -12 -28
-26 -39 -32 -19 -9 -19 -9 -5 8 8 10 -19 -6 -60 -37 -41 -30 -124 -88 -185
-127 -122 -81 -128 -85 -100 -75 11 4 17 4 14 0 -4 -4 -21 -9 -38 -11 -17 -2
-37 -8 -45 -12 -8 -4 -62 -6 -119 -3 -91 4 -104 3 -94 -9 10 -12 9 -13 -8 -7
-44 18 -55 18 -55 2 0 -9 -5 -16 -11 -16 -5 0 -7 6 -3 13 5 9 4 9 -6 0 -7 -6
-10 -16 -6 -21 8 -14 46 -22 46 -10 0 6 7 8 15 4 8 -3 15 -1 15 4 0 5 7 7 15
4 8 -4 15 -2 15 4 0 5 19 9 43 9 23 -1 53 1 67 5 14 3 34 2 45 -2 18 -6 17 -8
-10 -22 -17 -8 -36 -14 -43 -12 -7 1 -8 0 -2 -3 15 -7 2 -23 -21 -23 -10 0
-19 -4 -19 -9 0 -5 -14 -11 -31 -15 -17 -3 -28 -10 -24 -16 3 -5 1 -10 -4 -10
-6 0 -11 9 -11 20 0 20 -3 19 -46 -10 -27 -19 -53 -30 -65 -27 -10 3 -51 -3
-91 -14 -40 -10 -83 -19 -95 -19 -22 0 -32 -23 -15 -34 4 -2 55 9 112 25 58
16 120 30 137 32 18 1 33 4 33 7 0 3 12 6 26 6 28 2 141 54 188 87 16 12 26
16 22 9 -5 -8 -2 -10 8 -6 9 3 13 11 9 17 -3 5 -1 7 5 3 12 -7 196 89 252 132
19 15 52 36 73 46 20 11 35 21 33 23 -2 2 -56 -24 -120 -58 -65 -34 -120 -59
-123 -56 -3 3 26 21 64 41 130 65 291 177 307 214 6 14 0 16 -9 2z"/>
<path d="M1817 1457 c-10 -51 -19 -141 -22 -202 l-4 -110 14 115 c7 63 19 152
26 198 7 45 10 84 8 86 -2 3 -12 -37 -22 -87z"/>
<path d="M603 1483 c-22 -11 -33 -24 -32 -37 0 -12 3 -15 6 -8 3 7 21 24 41
37 41 28 33 32 -15 8z"/>
<path d="M1900 1453 c1 -11 30 -49 30 -39 0 4 21 -16 48 -44 26 -28 57 -53 69
-55 12 -2 32 -10 45 -18 29 -18 128 -51 134 -44 4 4 -68 36 -164 71 -32 13
-77 58 -101 104 -7 13 -15 21 -18 18 -3 -3 -14 -1 -24 5 -11 5 -19 6 -19 2z"/>
<path d="M110 1389 c-6 -11 -13 -52 -15 -92 l-4 -72 8 60 c12 85 27 119 49
110 39 -17 216 -65 224 -63 6 2 -13 16 -41 31 -28 16 -51 26 -51 23 0 -3 -19
1 -41 9 -62 22 -116 20 -129 -6z"/>
<path d="M1606 1393 c-3 -10 -33 -61 -66 -113 -69 -110 -136 -235 -121 -225
21 12 2 -50 -19 -65 -4 -3 -14 -19 -23 -37 -14 -26 -14 -32 -2 -37 9 -3 30 16
59 57 79 107 137 196 152 232 27 66 -5 35 -56 -54 -49 -85 -90 -137 -90 -113
0 6 -3 18 -7 28 -4 12 -3 15 5 10 7 -4 10 -2 7 6 -3 8 24 59 59 115 36 56 72
115 81 130 8 15 22 38 31 50 9 13 11 23 5 27 -5 4 -12 -2 -15 -11z"/>
<path d="M134 1340 c9 -61 30 -81 23 -21 -3 24 -11 49 -17 55 -10 8 -11 1 -6
-34z"/>
<path d="M1861 1350 c-1 -8 -6 -44 -11 -80 -12 -89 -23 -256 -15 -249 6 7 14
36 22 92 4 26 9 34 14 25 10 -14 12 7 9 77 -2 49 -17 156 -19 135z"/>
<path d="M1950 1308 c10 -24 34 -57 52 -74 18 -16 45 -46 60 -66 37 -49 170
-188 180 -188 4 0 5 7 2 15 -3 8 -10 13 -14 12 -4 -1 -56 60 -113 136 -58 77
-124 155 -146 174 l-41 34 20 -43z"/>
<path d="M175 1315 c4 -11 7 -31 7 -45 0 -24 0 -24 10 3 8 24 7 32 -7 45 -17
16 -17 16 -10 -3z"/>
<path d="M224 1301 c-5 -3 -10 -14 -12 -23 -2 -15 1 -16 28 -7 16 6 30 14 30
19 0 10 -36 19 -46 11z"/>
<path d="M282 1270 c-1 -35 7 -38 29 -12 15 17 15 20 -2 30 -25 16 -26 16 -27
-18z"/>
<path d="M2092 1249 c17 -21 32 -39 32 -39 1 0 26 -9 56 -21 l55 -20 -30 26
c-16 14 -56 41 -87 60 l-58 33 32 -39z"/>
<path d="M520 1260 c0 -5 -21 -10 -46 -10 -30 0 -43 -4 -38 -11 4 -8 0 -9 -15
-4 -13 4 -21 2 -21 -5 0 -8 16 -10 53 -7 65 6 141 24 110 26 -13 0 -23 6 -23
11 0 6 -4 10 -10 10 -5 0 -10 -4 -10 -10z"/>
<path d="M2828 1258 c-7 -4 -25 -5 -40 -2 -24 5 -28 2 -28 -15 0 -23 9 -25 60
-12 19 5 52 12 72 15 l37 7 -5 -38 c-5 -36 -5 -37 10 -19 21 25 20 32 -4 56
-20 20 -77 25 -102 8z"/>
<path d="M2240 1231 c0 -5 20 -14 45 -20 24 -6 48 -17 52 -25 7 -12 13 -12 38
-2 l30 13 -69 22 c-74 23 -96 26 -96 12z"/>
<path d="M2675 1231 c-6 -6 -32 -12 -58 -13 -26 -2 -47 -7 -47 -12 0 -9 108
-2 117 8 3 3 3 10 1 16 -2 7 -7 7 -13 1z"/>
<path d="M607 1209 c-4 -15 -11 -20 -22 -15 -9 3 -13 2 -10 -4 14 -22 63 3 65
33 0 17 -28 5 -33 -14z"/>
<path d="M196 1182 c8 -35 23 -46 87 -67 29 -9 61 -25 72 -35 14 -13 25 -16
35 -10 13 8 13 10 -1 10 -9 0 -19 7 -23 15 -3 8 -17 15 -30 15 -14 0 -30 8
-35 18 -6 9 -11 14 -11 10 0 -4 -18 2 -39 13 -24 12 -38 26 -35 33 3 8 -2 16
-11 19 -12 5 -14 1 -9 -21z"/>
<path d="M2854 1193 c-11 -8 -19 -28 -21 -51 l-2 -37 15 28 c19 36 27 34 19
-3 -4 -19 -3 -30 4 -30 6 0 11 18 11 39 0 22 7 46 15 55 14 13 13 15 -4 13
-11 0 -28 -7 -37 -14z"/>
<path d="M2700 1193 c-8 -3 -27 -17 -42 -31 -22 -20 -36 -25 -76 -23 -29 1
-55 -5 -67 -14 -19 -14 -18 -14 15 -13 19 1 53 -1 75 -6 37 -7 39 -6 20 8 -20
15 -20 15 1 16 12 0 33 9 48 21 l26 21 9 -24 c9 -20 10 -19 10 15 1 20 0 37
-1 36 -2 0 -10 -3 -18 -6z"/>
<path d="M2387 1157 c-28 -12 -28 -12 28 -25 65 -15 81 -9 45 18 -29 23 -35
23 -73 7z"/>
<path d="M2731 1153 c-1 -20 3 -22 32 -17 47 8 57 12 57 23 0 6 -16 10 -35 9
-24 -1 -35 -6 -36 -17 0 -12 -3 -11 -9 4 -8 19 -9 19 -9 -2z"/>
<path d="M1659 1153 c0 -5 -3 -17 -6 -28 -2 -11 -7 -32 -10 -47 -3 -16 -9 -28
-14 -28 -5 0 -5 -7 -2 -17 4 -10 2 -14 -5 -9 -7 4 -10 -1 -9 -14 1 -11 2 -20
3 -20 1 0 12 16 24 35 18 29 37 135 24 135 -2 0 -4 -3 -5 -7z"/>
<path d="M2200 1156 c0 -8 105 -108 135 -128 19 -13 14 -6 -13 19 -23 21 -42
42 -42 46 0 5 8 1 17 -9 11 -11 18 -13 21 -5 2 6 13 11 25 11 13 1 1 8 -28 19
-27 10 -65 25 -82 35 -18 9 -33 15 -33 12z"/>
<path d="M515 1113 c-11 -2 -30 -6 -42 -9 -13 -2 -23 -8 -23 -13 0 -5 27 -2
60 5 33 8 62 13 64 12 2 -2 8 0 12 5 8 7 -36 8 -71 0z"/>
<path d="M190 1104 c0 -3 11 -22 25 -42 14 -20 25 -44 25 -53 0 -29 50 -107
72 -112 l21 -6 -22 -18 c-19 -16 -21 -22 -11 -47 6 -16 13 -26 16 -23 3 3 1
14 -4 24 -5 10 -7 24 -5 31 7 19 40 14 46 -8 7 -28 24 -25 31 5 5 20 13 25 39
26 25 0 28 2 13 8 -11 4 -37 5 -57 1 -37 -7 -39 -6 -72 44 -19 28 -44 69 -54
91 -26 54 -46 85 -55 85 -5 0 -8 -2 -8 -6z"/>
<path d="M1876 1018 c3 -141 17 -272 39 -363 4 -20 3 6 -16 275 -12 168 -27
222 -23 88z"/>
<path d="M2830 1070 c0 -12 -5 -30 -10 -41 -7 -13 -7 -19 0 -19 5 0 10 1 10 3
0 1 4 17 9 34 6 20 6 35 0 38 -5 4 -9 -3 -9 -15z"/>
<path d="M2463 1047 c-9 -20 -8 -22 11 -22 35 2 49 14 35 31 -17 20 -34 17
-46 -9z"/>
<path d="M2053 1013 c12 -21 46 -63 75 -93 30 -30 50 -48 46 -40 -10 19 -135
170 -140 170 -2 0 7 -17 19 -37z"/>
<path d="M710 1004 c1 -27 24 -54 46 -53 16 0 16 2 -3 9 -13 5 -24 14 -24 20
-1 5 -2 14 -3 19 -2 19 -16 23 -16 5z"/>
<path d="M2645 975 c-11 -19 -17 -37 -13 -40 3 -3 11 8 18 25 7 16 16 30 21
30 5 0 9 5 9 10 0 21 -18 9 -35 -25z"/>
<path d="M2425 990 c-6 -10 20 -39 36 -40 15 0 17 29 3 34 -10 4 -13 1 -9 -7
4 -6 0 -4 -8 6 -10 12 -17 15 -22 7z"/>
<path d="M2831 939 c-29 -54 -30 -61 -12 -44 24 21 54 82 48 99 -2 5 -18 -19
-36 -55z"/>
<path d="M1575 957 c-5 -22 -9 -27 -12 -14 -2 9 -8 17 -13 17 -4 0 -3 -16 3
-35 13 -42 1 -95 -48 -225 -21 -54 -35 -113 -39 -160 -8 -85 7 -79 19 8 4 29
13 56 19 58 7 3 13 19 13 37 0 18 7 52 16 77 24 66 47 142 51 166 2 11 6 26
10 33 15 23 16 59 2 64 -9 4 -16 -5 -21 -26z"/>
<path d="M1226 966 c3 -8 -7 -11 -33 -8 -27 2 -34 0 -24 -6 11 -8 10 -11 -5
-15 -16 -4 -16 -5 4 -6 12 0 22 3 22 7 0 5 14 7 30 6 17 -1 30 2 30 8 0 5 5 6
12 2 6 -4 8 -3 5 3 -10 16 -47 23 -41 9z"/>
<path d="M2252 914 c21 -21 40 -35 43 -32 7 7 -31 45 -60 60 -11 6 -3 -7 17
-28z"/>
<path d="M2485 940 c-6 -10 51 -40 75 -40 15 0 12 -16 -6 -30 -8 -8 -20 -23
-25 -34 -10 -20 -10 -20 5 -2 13 16 18 17 31 6 8 -7 18 -10 22 -6 3 3 2 6 -3
6 -5 0 -10 9 -10 21 0 18 2 18 12 4 11 -14 12 -14 18 1 8 21 8 24 -5 24 -6 0
-30 14 -54 30 -49 33 -51 34 -60 20z"/>
<path d="M1802 764 c-1 -100 3 -195 7 -210 6 -19 8 14 7 89 -1 65 2 121 6 123
4 3 8 11 8 17 0 7 -4 6 -11 -3 -7 -11 -9 -3 -5 30 2 25 1 65 -4 90 -5 31 -8
-13 -8 -136z"/>
<path d="M1103 906 c-19 -11 -19 -13 -6 -22 14 -9 12 -14 -13 -44 -50 -59 -59
-77 -14 -30 23 24 44 57 47 72 4 22 8 26 19 17 11 -9 10 -15 -3 -37 l-17 -27
24 20 c14 11 26 20 28 21 4 1 -35 44 -39 43 -2 -1 -14 -6 -26 -13z"/>
<path d="M2783 898 c-16 -21 -22 -44 -14 -56 4 -7 12 5 18 28 11 43 11 47 -4
28z"/>
<path d="M1355 880 c-3 -11 -11 -20 -16 -20 -5 0 -9 -11 -9 -25 0 -14 -5 -25
-11 -25 -5 0 -8 -4 -5 -9 3 -5 -1 -14 -9 -21 -8 -7 -15 -17 -15 -22 0 -9 -39
-68 -51 -78 -4 -3 -10 -19 -13 -37 -4 -17 -18 -43 -32 -58 -30 -32 -32 -50 -4
-35 11 6 20 7 20 3 0 -4 4 -1 10 7 5 9 5 17 0 20 -6 3 11 40 36 81 76 120 134
239 119 239 -8 0 -17 -9 -20 -20z"/>
<path d="M2136 880 c7 -15 68 -96 87 -115 5 -5 2 4 -8 21 -19 33 -91 119 -79
94z"/>
<path d="M2336 871 c-6 -10 34 -46 52 -47 29 -2 33 -5 26 -16 -4 -7 -3 -8 5
-4 6 4 20 2 29 -4 9 -7 5 -2 -10 11 -40 36 -97 69 -102 60z"/>
<path d="M510 840 c19 -17 52 -39 72 -49 21 -10 35 -21 32 -24 -3 -3 9 -13 28
-23 18 -9 43 -27 55 -40 12 -13 26 -24 30 -24 4 0 21 -14 37 -30 16 -17 34
-30 40 -30 30 0 -216 212 -250 216 -13 2 -31 10 -40 18 -8 9 -21 16 -27 16 -7
0 4 -14 23 -30z"/>
<path d="M687 847 c2 -4 9 -5 14 -2 5 4 9 -1 9 -9 0 -9 5 -16 11 -16 5 0 7 5
3 12 -4 6 -3 8 4 5 11 -8 42 1 42 12 0 3 -20 6 -44 6 -24 0 -42 -3 -39 -8z"/>
<path d="M2683 838 c-1 -11 -6 -25 -12 -31 -7 -7 -8 -3 -4 12 3 12 1 21 -6 21
-6 0 -11 -14 -11 -31 0 -27 2 -30 16 -19 23 20 37 51 27 61 -5 5 -9 0 -10 -13z"/>
<path d="M2820 839 c0 -7 27 -9 88 -4 48 4 89 9 91 11 2 2 -37 4 -87 4 -60 0
-92 -4 -92 -11z"/>
<path d="M853 828 c23 -8 28 -15 24 -34 -3 -17 0 -24 10 -24 10 0 13 6 9 18
-5 14 -4 14 9 -2 8 -11 15 -26 15 -35 0 -21 13 -4 15 19 2 25 -55 70 -87 69
-21 -1 -21 -1 5 -11z"/>
<path d="M225 781 c13 -27 29 -52 34 -56 6 -3 7 -13 4 -22 -5 -13 -2 -15 15
-11 12 4 22 2 22 -4 0 -5 5 -6 11 -2 7 4 0 14 -18 25 -17 11 -42 41 -57 69
-35 65 -44 65 -11 1z"/>
<path d="M2479 777 c-12 -18 -16 -27 -9 -20 10 9 16 8 27 -3 16 -16 33 -19 33
-5 0 5 -9 13 -20 16 -11 3 -20 10 -20 15 0 9 35 6 64 -6 13 -5 17 -4 13 3 -4
6 -20 16 -37 21 -27 10 -31 8 -51 -21z"/>
<path d="M2798 793 c-6 -23 -5 -23 75 -21 l82 2 -72 3 c-58 3 -72 7 -75 21 -3
13 -5 12 -10 -5z"/>
<path d="M2742 777 c-6 -7 -16 -25 -21 -40 -7 -17 -17 -27 -27 -25 -9 2 -23
-8 -32 -22 l-16 -25 22 20 23 19 -11 -29 c-6 -16 -16 -35 -22 -42 -8 -10 -7
-12 3 -8 14 6 102 155 95 162 -2 2 -8 -2 -14 -10z"/>
<path d="M2211 724 c18 -20 43 -40 54 -46 11 -6 0 10 -25 36 -24 25 -49 46
-54 46 -5 0 6 -16 25 -36z"/>
<path d="M2598 738 c9 -9 6 -18 -15 -40 -33 -35 -23 -37 11 -3 24 24 26 55 3
55 -7 0 -7 -4 1 -12z"/>
<path d="M2838 743 c17 -2 47 -2 65 0 17 2 3 4 -33 4 -36 0 -50 -2 -32 -4z"/>
<path d="M2785 710 c-4 -6 19 -10 62 -9 49 1 61 3 43 9 -36 12 -98 12 -105 0z"/>
<path d="M904 672 c3 -6 2 -13 -4 -17 -5 -3 -10 -1 -10 6 0 7 -3 9 -7 6 -9 -9
28 -48 39 -41 5 3 5 11 -1 18 -6 7 -8 15 -5 18 3 3 0 9 -7 14 -7 4 -10 3 -5
-4z"/>
<path d="M1316 655 c9 -24 41 -38 47 -21 3 8 -5 18 -19 25 -32 14 -35 14 -28
-4z"/>
<path d="M1386 632 c6 -4 14 -25 18 -46 5 -28 10 -35 16 -26 5 8 4 22 -1 32
-5 10 -7 18 -3 18 3 0 1 7 -6 15 -7 8 -18 15 -24 15 -8 0 -8 -2 0 -8z"/>
<path d="M2783 632 c-24 -2 -43 -7 -43 -13 0 -5 56 -9 132 -9 118 0 130 2 112
15 -10 8 -32 14 -49 15 -23 0 -26 -3 -15 -10 12 -8 11 -10 -7 -10 -13 0 -23 4
-23 9 0 9 -25 10 -107 3z"/>
<path d="M2545 594 c-22 -19 -48 -36 -57 -40 -10 -3 -18 -10 -18 -15 0 -6 12
-3 28 6 40 24 98 73 92 78 -3 3 -23 -10 -45 -29z"/>
<path d="M1919 569 c-3 -47 4 -125 11 -109 6 15 6 71 0 115 l-6 50 -5 -56z"/>
<path d="M848 569 c23 -25 42 -49 42 -55 0 -17 73 -80 108 -94 49 -19 48 -7
-1 18 -41 21 -79 55 -108 98 -8 12 -30 34 -49 49 -31 26 -31 24 8 -16z"/>
<path d="M977 603 c-11 -10 -8 -38 6 -57 11 -15 12 -12 9 23 -4 43 -5 45 -15
34z"/>
<path d="M2806 581 c-4 -5 -21 -7 -40 -4 -19 3 -36 1 -40 -6 -13 -20 141 -17
162 3 10 10 4 13 -32 15 -24 1 -47 -3 -50 -8z"/>
<path d="M2187 545 c-15 -19 -27 -36 -27 -39 0 -13 29 7 48 34 31 41 12 46
-21 5z"/>
<path d="M1335 550 c10 -11 27 -20 39 -20 20 0 20 0 1 13 -11 8 -29 17 -39 21
-19 7 -19 6 -1 -14z"/>
<path d="M2645 548 c-11 -6 -23 -16 -27 -22 -6 -8 -10 -7 -16 2 -7 9 -13 8
-27 -8 -11 -12 -36 -31 -57 -42 -21 -12 -38 -25 -38 -30 0 -4 -6 -8 -14 -8 -8
0 -17 -7 -20 -16 -3 -8 -10 -12 -16 -9 -5 3 -10 1 -10 -5 0 -6 -6 -10 -12 -9
-14 2 -42 -7 -72 -23 -10 -5 -28 -11 -39 -14 -11 -2 -39 -21 -61 -42 -68 -65
-101 -83 -128 -73 -12 6 -20 10 -15 10 4 1 0 12 -9 26 -9 14 -20 22 -26 19 -5
-3 -2 -14 8 -25 16 -18 16 -19 0 -19 -9 0 -14 -4 -11 -10 4 -6 -6 -7 -26 -3
-23 4 -30 3 -25 -5 4 -7 3 -12 -2 -12 -18 0 -87 -65 -87 -80 1 -20 18 -16 86
20 31 17 68 30 81 30 25 0 164 87 226 141 27 24 36 27 53 18 28 -15 101 22
161 82 33 33 50 43 57 36 6 -6 11 -8 11 -4 0 4 10 -1 22 -13 12 -11 38 -25 57
-30 41 -12 194 -24 171 -14 -8 4 -18 12 -22 18 -4 5 -28 11 -55 12 -77 3 -76
2 -71 28 3 14 1 31 -3 38 -6 8 -9 0 -9 -23 0 -46 -6 -51 -41 -34 -44 23 -45
35 -3 71 40 35 43 41 9 22z m-535 -318 c-8 -5 -22 -10 -30 -10 -8 0 -39 -11
-69 -25 -59 -28 -77 -28 -34 0 26 17 102 42 133 44 13 1 13 0 0 -9z"/>
<path d="M1086 522 c-4 -4 -12 -7 -17 -7 -12 0 -13 -19 -2 -22 14 -5 47 23 36
30 -6 4 -13 3 -17 -1z"/>
<path d="M1186 523 c-4 -5 -11 -8 -14 -8 -4 0 -18 -8 -30 -17 -24 -16 -24 -16
-3 -23 16 -5 27 0 41 17 18 21 25 38 17 38 -2 0 -7 -3 -11 -7z"/>
<path d="M1393 506 c3 -7 0 -19 -6 -25 -8 -8 -8 -11 1 -11 7 0 12 5 12 11 0 5
5 7 10 4 6 -4 8 -10 6 -14 -3 -4 4 -7 14 -8 19 -2 19 -1 0 20 -11 11 -20 24
-20 29 0 4 -5 8 -11 8 -6 0 -9 -6 -6 -14z"/>
<path d="M1806 449 c-4 -29 -9 -66 -12 -83 -4 -24 -3 -27 5 -15 11 17 27 149
19 149 -3 0 -8 -23 -12 -51z"/>
<path d="M1034 471 c4 -5 1 -11 -5 -13 -6 -2 1 -9 17 -16 24 -12 26 -11 14 2
-16 20 -15 20 45 -3 53 -20 146 -38 110 -21 -11 5 -37 11 -57 15 -21 3 -44 12
-51 20 -8 8 -17 12 -19 9 -3 -2 -17 0 -32 6 -15 5 -25 6 -22 1z"/>
<path d="M585 431 c19 -8 18 -9 -5 -13 -19 -4 -16 -6 12 -7 20 0 40 -6 43 -11
3 -6 34 -29 67 -53 33 -23 75 -52 92 -64 17 -12 39 -22 49 -22 10 -1 38 -13
62 -27 33 -19 64 -27 119 -31 69 -5 74 -4 81 16 8 27 16 27 44 -3 14 -15 40
-27 65 -31 22 -3 53 -8 69 -11 25 -5 27 -3 27 30 0 38 13 47 29 19 7 -13 26
-18 80 -21 63 -4 71 -2 65 12 -4 9 -9 15 -11 12 -8 -8 -83 66 -77 76 3 5 2 7
-3 6 -4 -1 -32 10 -61 26 -30 15 -86 34 -125 41 -40 8 -88 19 -107 25 -43 13
-50 13 -50 0 0 -6 3 -9 8 -8 4 1 34 -6 67 -16 33 -10 69 -20 80 -21 11 -1 20
-3 20 -5 0 -1 9 -3 20 -4 73 -9 165 -70 162 -107 -1 -21 -18 -19 -70 8 -24 12
-28 12 -33 -2 -4 -9 -13 -14 -20 -11 -8 3 -11 0 -7 -10 8 -22 -73 -16 -109 8
-14 10 -40 20 -57 22 -18 2 -39 10 -49 18 -9 8 -26 18 -37 21 -21 7 -15 1 47
-45 22 -17 21 -17 -42 -15 -48 2 -79 10 -117 29 -28 15 -53 24 -57 21 -3 -4
-6 -1 -6 6 0 7 -6 11 -13 8 -8 -3 -36 12 -63 34 -27 21 -53 39 -58 39 -5 0
-23 10 -40 23 -35 26 -81 47 -99 46 -7 0 -3 -4 8 -8z"/>
<path d="M120 410 c19 -16 36 -20 94 -19 l71 2 -75 8 c-41 4 -76 12 -78 18 -2
6 -11 11 -19 11 -12 0 -10 -5 7 -20z"/>
<path d="M1612 421 c-8 -4 -14 -12 -14 -16 0 -11 32 -28 39 -21 4 3 0 6 -8 6
-8 1 2 9 21 20 l35 19 -30 0 c-16 1 -36 -3 -43 -8z"/>
<path d="M2520 383 c0 -10 130 -96 136 -90 2 2 -22 22 -53 44 -74 51 -83 56
-83 46z"/>
<path d="M2685 382 c-5 -4 -10 -31 -10 -60 0 -48 2 -53 20 -48 11 3 84 6 163
6 78 0 142 4 142 8 0 5 -27 9 -59 8 -33 0 -66 5 -74 12 -9 8 -18 9 -21 3 -3
-5 0 -12 6 -14 19 -8 -72 -7 -112 1 -64 13 -41 61 33 68 23 2 56 8 72 13 23 7
10 9 -60 10 -49 0 -94 -3 -100 -7z"/>
<path d="M500 369 c-12 -8 -10 -9 10 -5 21 4 28 0 38 -23 21 -47 7 -64 -49
-58 -30 3 -49 1 -52 -6 -2 -7 -18 -8 -53 -1 -27 5 -83 7 -124 4 l-75 -5 64 -7
c35 -5 94 -8 130 -8 36 0 83 -4 103 -9 20 -5 48 -6 63 -4 25 5 26 8 23 67 -3
60 -4 61 -33 64 -16 1 -37 -3 -45 -9z"/>
<path d="M43 362 c-63 -6 -33 -19 42 -18 41 1 75 4 75 7 0 9 -74 15 -117 11z"/>
<path d="M385 360 c-44 -3 -69 -8 -55 -9 41 -6 124 0 140 10 8 4 11 8 5 7 -5
-1 -46 -5 -90 -8z"/>
<path d="M2908 363 c17 -2 47 -2 65 0 17 2 3 4 -33 4 -36 0 -50 -2 -32 -4z"/>
<path d="M1735 280 c3 -5 0 -10 -7 -10 -7 -1 -1 -8 15 -16 16 -9 27 -23 28
-37 0 -21 1 -21 9 -2 13 29 12 35 -6 35 -9 0 -18 9 -21 20 -3 11 -10 20 -15
20 -5 0 -6 -4 -3 -10z"/>
<path d="M2296 269 c3 -5 26 -9 51 -9 26 0 44 2 42 4 -9 8 -98 13 -93 5z"/>
<path d="M593 258 c-2 -5 40 -8 93 -8 54 0 94 3 90 7 -9 10 -177 10 -183 1z"/>
<path d="M2260 240 l21 -29 -63 -3 c-35 -2 43 -4 172 -4 l235 -1 -164 9 c-130
6 -168 11 -182 24 -10 9 -16 21 -13 25 3 5 -2 9 -11 9 -14 0 -13 -4 5 -30z"/>
<path d="M1575 251 c-3 -6 -5 -11 -3 -12 31 -7 48 -7 53 1 3 6 2 10 -4 10 -5
0 -16 3 -24 6 -8 3 -18 1 -22 -5z"/>
<path d="M635 200 l-170 -6 158 -2 c86 -1 157 -5 157 -9 0 -3 -18 -21 -40 -40
-21 -19 -37 -39 -34 -46 3 -9 52 -13 174 -15 93 -1 188 -4 212 -6 29 -3 46 1
53 11 9 12 25 12 100 3 49 -6 92 -14 95 -18 10 -13 29 -12 24 2 -4 9 4 12 31
11 20 -1 39 -5 42 -9 9 -9 76 -7 92 3 41 26 -58 31 -611 27 -113 0 -204 2
-201 7 2 4 8 7 12 7 11 0 91 73 91 83 0 4 -3 6 -7 5 -5 -1 -84 -5 -178 -8z"/>
<path d="M2678 203 c23 -2 59 -2 80 0 20 2 1 4 -43 4 -44 0 -61 -2 -37 -4z"/>
<path d="M378 192 c8 -6 -8 -21 -53 -46 -35 -21 -70 -46 -77 -54 -7 -9 10 -3
37 13 28 16 78 44 113 62 l63 33 -48 0 c-28 0 -43 -4 -35 -8z"/>
<path d="M1470 178 c0 -14 50 -68 62 -68 5 0 4 9 -2 19 -16 30 -14 31 54 31
44 0 67 -5 76 -15 7 -8 21 -15 32 -15 10 0 17 -4 14 -9 -4 -5 3 -7 14 -4 37
10 31 21 -22 41 -63 23 -228 37 -228 20z"/>
<path d="M2332 161 c20 -28 57 -55 65 -47 8 8 -11 28 -48 50 l-32 19 15 -22z"/>
<path d="M1968 113 c-37 -10 -16 -23 37 -23 30 0 55 4 55 9 0 18 -49 26 -92
14z"/>
<path d="M2155 102 c35 -16 118 -22 170 -13 49 9 49 9 -30 10 -44 1 -98 4
-120 6 -29 4 -34 3 -20 -3z"/>
<path d="M596 65 c-22 -23 -20 -28 7 -14 12 7 38 12 57 10 43 -2 37 4 -12 13
-26 5 -40 2 -52 -9z"/>
<path d="M375 43 c-16 -2 -43 -10 -60 -17 -16 -8 -48 -14 -69 -14 -21 -1 -41
-4 -44 -7 -3 -3 42 -4 99 -4 69 1 92 4 69 9 -38 7 -31 12 40 28 45 10 23 13
-35 5z"/>
<path d="M1132 31 c-10 -6 -9 -10 7 -14 11 -2 27 0 36 7 14 10 13 12 -7 13
-13 1 -29 -1 -36 -6z"/>
<path d="M2540 9 c-21 -4 4 -6 60 -7 95 0 104 4 20 10 -25 2 -61 0 -80 -3z"/>
</g>
</svg>
